<mxfile host="app.diagrams.net" modified="2024-04-28T09:11:01.977Z" agent="Mozilla/5.0 (Macintosh; Intel Mac OS X 10_15_7) AppleWebKit/537.36 (KHTML, like Gecko) Chrome/124.0.0.0 Safari/537.36" etag="9fXQxecXFLAzoOHd7m0j" version="24.2.1" type="device">
  <diagram name="Page-1" id="up4hxP1qJnZYs-pVX6ws">
    <mxGraphModel dx="1366" dy="749" grid="1" gridSize="10" guides="1" tooltips="1" connect="1" arrows="1" fold="1" page="1" pageScale="1" pageWidth="850" pageHeight="1100" math="0" shadow="0">
      <root>
        <mxCell id="0" />
        <mxCell id="1" parent="0" />
        <mxCell id="PbvU86R3BIHayH-EgUmb-1" value="apifootball.com" style="image;points=[];aspect=fixed;html=1;align=center;shadow=0;dashed=0;image=img/lib/allied_telesis/computer_and_terminals/Server_Desktop.svg;" vertex="1" parent="1">
          <mxGeometry x="640" y="230" width="42.599999999999994" height="54" as="geometry" />
        </mxCell>
        <mxCell id="PbvU86R3BIHayH-EgUmb-9" value="" style="edgeStyle=orthogonalEdgeStyle;rounded=0;orthogonalLoop=1;jettySize=auto;html=1;" edge="1" parent="1" source="PbvU86R3BIHayH-EgUmb-2" target="PbvU86R3BIHayH-EgUmb-1">
          <mxGeometry relative="1" as="geometry">
            <mxPoint x="547.5999999999999" y="257" as="targetPoint" />
          </mxGeometry>
        </mxCell>
        <mxCell id="PbvU86R3BIHayH-EgUmb-10" value="/apifootball.com" style="edgeLabel;html=1;align=center;verticalAlign=middle;resizable=0;points=[];" vertex="1" connectable="0" parent="PbvU86R3BIHayH-EgUmb-9">
          <mxGeometry x="-0.0557" y="-2" relative="1" as="geometry">
            <mxPoint as="offset" />
          </mxGeometry>
        </mxCell>
        <mxCell id="PbvU86R3BIHayH-EgUmb-2" value="football microservice" style="image;points=[];aspect=fixed;html=1;align=center;shadow=0;dashed=0;image=img/lib/allied_telesis/computer_and_terminals/Server_Desktop.svg;" vertex="1" parent="1">
          <mxGeometry x="425" y="230" width="42.599999999999994" height="54" as="geometry" />
        </mxCell>
        <mxCell id="PbvU86R3BIHayH-EgUmb-6" value="" style="edgeStyle=orthogonalEdgeStyle;rounded=0;orthogonalLoop=1;jettySize=auto;html=1;" edge="1" parent="1" source="PbvU86R3BIHayH-EgUmb-3" target="PbvU86R3BIHayH-EgUmb-2">
          <mxGeometry relative="1" as="geometry">
            <mxPoint x="322.5999999999999" y="257" as="targetPoint" />
          </mxGeometry>
        </mxCell>
        <mxCell id="PbvU86R3BIHayH-EgUmb-7" value="/api/*" style="edgeLabel;html=1;align=center;verticalAlign=middle;resizable=0;points=[];" vertex="1" connectable="0" parent="PbvU86R3BIHayH-EgUmb-6">
          <mxGeometry x="0.0351" relative="1" as="geometry">
            <mxPoint as="offset" />
          </mxGeometry>
        </mxCell>
        <mxCell id="PbvU86R3BIHayH-EgUmb-12" value="" style="edgeStyle=orthogonalEdgeStyle;rounded=0;orthogonalLoop=1;jettySize=auto;html=1;" edge="1" parent="1" source="PbvU86R3BIHayH-EgUmb-3" target="PbvU86R3BIHayH-EgUmb-4">
          <mxGeometry relative="1" as="geometry">
            <mxPoint x="322.5999999999999" y="257" as="targetPoint" />
          </mxGeometry>
        </mxCell>
        <mxCell id="PbvU86R3BIHayH-EgUmb-13" value="/" style="edgeLabel;html=1;align=center;verticalAlign=middle;resizable=0;points=[];" vertex="1" connectable="0" parent="PbvU86R3BIHayH-EgUmb-12">
          <mxGeometry x="0.6385" y="-1" relative="1" as="geometry">
            <mxPoint as="offset" />
          </mxGeometry>
        </mxCell>
        <mxCell id="PbvU86R3BIHayH-EgUmb-3" value="football ngnix" style="image;points=[];aspect=fixed;html=1;align=center;shadow=0;dashed=0;image=img/lib/allied_telesis/computer_and_terminals/Server_Desktop.svg;" vertex="1" parent="1">
          <mxGeometry x="200" y="230" width="42.599999999999994" height="54" as="geometry" />
        </mxCell>
        <mxCell id="PbvU86R3BIHayH-EgUmb-4" value="Static Frontend" style="sketch=0;pointerEvents=1;shadow=0;dashed=0;html=1;strokeColor=none;fillColor=#505050;labelPosition=center;verticalLabelPosition=bottom;verticalAlign=top;outlineConnect=0;align=center;shape=mxgraph.office.concepts.folder;" vertex="1" parent="1">
          <mxGeometry x="280" y="330" width="50" height="45" as="geometry" />
        </mxCell>
        <mxCell id="PbvU86R3BIHayH-EgUmb-15" value="" style="edgeStyle=orthogonalEdgeStyle;rounded=0;orthogonalLoop=1;jettySize=auto;html=1;" edge="1" parent="1" source="PbvU86R3BIHayH-EgUmb-14" target="PbvU86R3BIHayH-EgUmb-3">
          <mxGeometry relative="1" as="geometry" />
        </mxCell>
        <mxCell id="PbvU86R3BIHayH-EgUmb-16" value="football app" style="edgeLabel;html=1;align=center;verticalAlign=middle;resizable=0;points=[];" vertex="1" connectable="0" parent="PbvU86R3BIHayH-EgUmb-15">
          <mxGeometry x="0.0114" y="-1" relative="1" as="geometry">
            <mxPoint as="offset" />
          </mxGeometry>
        </mxCell>
        <mxCell id="PbvU86R3BIHayH-EgUmb-14" value="" style="image;aspect=fixed;html=1;points=[];align=center;fontSize=12;image=img/lib/azure2/general/Browser.svg;" vertex="1" parent="1">
          <mxGeometry x="40" y="230" width="65" height="52" as="geometry" />
        </mxCell>
        <mxCell id="PbvU86R3BIHayH-EgUmb-17" value="Flow Diagram" style="swimlane;" vertex="1" parent="1">
          <mxGeometry x="10" y="170" width="800" height="240" as="geometry" />
        </mxCell>
        <mxCell id="PbvU86R3BIHayH-EgUmb-20" value="" style="edgeStyle=orthogonalEdgeStyle;rounded=0;orthogonalLoop=1;jettySize=auto;html=1;" edge="1" parent="1" source="PbvU86R3BIHayH-EgUmb-18" target="PbvU86R3BIHayH-EgUmb-19">
          <mxGeometry relative="1" as="geometry" />
        </mxCell>
        <mxCell id="PbvU86R3BIHayH-EgUmb-18" value="Get Countries" style="text;html=1;align=center;verticalAlign=middle;resizable=0;points=[];autosize=1;strokeColor=none;fillColor=none;" vertex="1" parent="1">
          <mxGeometry x="30" y="535" width="100" height="30" as="geometry" />
        </mxCell>
        <mxCell id="PbvU86R3BIHayH-EgUmb-22" value="" style="edgeStyle=orthogonalEdgeStyle;rounded=0;orthogonalLoop=1;jettySize=auto;html=1;" edge="1" parent="1" source="PbvU86R3BIHayH-EgUmb-19" target="PbvU86R3BIHayH-EgUmb-21">
          <mxGeometry relative="1" as="geometry" />
        </mxCell>
        <mxCell id="PbvU86R3BIHayH-EgUmb-23" value="" style="edgeStyle=orthogonalEdgeStyle;rounded=0;orthogonalLoop=1;jettySize=auto;html=1;" edge="1" parent="1" source="PbvU86R3BIHayH-EgUmb-19" target="PbvU86R3BIHayH-EgUmb-21">
          <mxGeometry relative="1" as="geometry" />
        </mxCell>
        <mxCell id="PbvU86R3BIHayH-EgUmb-24" value="" style="edgeStyle=orthogonalEdgeStyle;rounded=0;orthogonalLoop=1;jettySize=auto;html=1;" edge="1" parent="1" source="PbvU86R3BIHayH-EgUmb-19" target="PbvU86R3BIHayH-EgUmb-21">
          <mxGeometry relative="1" as="geometry" />
        </mxCell>
        <mxCell id="PbvU86R3BIHayH-EgUmb-19" value="Get Leagues" style="text;html=1;align=center;verticalAlign=middle;resizable=0;points=[];autosize=1;strokeColor=none;fillColor=none;" vertex="1" parent="1">
          <mxGeometry x="197.4" y="535" width="90" height="30" as="geometry" />
        </mxCell>
        <mxCell id="PbvU86R3BIHayH-EgUmb-29" value="" style="edgeStyle=orthogonalEdgeStyle;rounded=0;orthogonalLoop=1;jettySize=auto;html=1;" edge="1" parent="1" source="PbvU86R3BIHayH-EgUmb-21" target="PbvU86R3BIHayH-EgUmb-27">
          <mxGeometry relative="1" as="geometry" />
        </mxCell>
        <mxCell id="PbvU86R3BIHayH-EgUmb-21" value="Get Teams" style="text;html=1;align=center;verticalAlign=middle;resizable=0;points=[];autosize=1;strokeColor=none;fillColor=none;" vertex="1" parent="1">
          <mxGeometry x="352.4" y="565" width="80" height="30" as="geometry" />
        </mxCell>
        <mxCell id="PbvU86R3BIHayH-EgUmb-28" value="" style="edgeStyle=orthogonalEdgeStyle;rounded=0;orthogonalLoop=1;jettySize=auto;html=1;" edge="1" parent="1" source="PbvU86R3BIHayH-EgUmb-25" target="PbvU86R3BIHayH-EgUmb-27">
          <mxGeometry relative="1" as="geometry" />
        </mxCell>
        <mxCell id="PbvU86R3BIHayH-EgUmb-25" value="Get Standings" style="text;html=1;align=center;verticalAlign=middle;resizable=0;points=[];autosize=1;strokeColor=none;fillColor=none;" vertex="1" parent="1">
          <mxGeometry x="342.4" y="515" width="100" height="30" as="geometry" />
        </mxCell>
        <mxCell id="PbvU86R3BIHayH-EgUmb-26" value="" style="edgeStyle=orthogonalEdgeStyle;rounded=0;orthogonalLoop=1;jettySize=auto;html=1;exitX=1.001;exitY=0.494;exitDx=0;exitDy=0;exitPerimeter=0;" edge="1" parent="1" source="PbvU86R3BIHayH-EgUmb-19" target="PbvU86R3BIHayH-EgUmb-25">
          <mxGeometry relative="1" as="geometry">
            <mxPoint x="277.4" y="560" as="sourcePoint" />
            <mxPoint x="362.4" y="590" as="targetPoint" />
            <Array as="points">
              <mxPoint x="304.4" y="550" />
              <mxPoint x="304.4" y="530" />
            </Array>
          </mxGeometry>
        </mxCell>
        <mxCell id="PbvU86R3BIHayH-EgUmb-35" value="" style="edgeStyle=orthogonalEdgeStyle;rounded=0;orthogonalLoop=1;jettySize=auto;html=1;" edge="1" parent="1" source="PbvU86R3BIHayH-EgUmb-27" target="PbvU86R3BIHayH-EgUmb-36">
          <mxGeometry relative="1" as="geometry">
            <mxPoint x="670" y="569" as="targetPoint" />
          </mxGeometry>
        </mxCell>
        <mxCell id="PbvU86R3BIHayH-EgUmb-27" value="Match&lt;div&gt;Standing.TeamId&lt;/div&gt;&lt;div&gt;===&lt;/div&gt;&lt;div&gt;Team.Id&lt;/div&gt;" style="ellipse;whiteSpace=wrap;html=1;" vertex="1" parent="1">
          <mxGeometry x="532.4" y="490" width="115" height="105" as="geometry" />
        </mxCell>
        <mxCell id="PbvU86R3BIHayH-EgUmb-36" value="&lt;span style=&quot;text-align: left; text-wrap: nowrap;&quot;&gt;Row (Country,League,Team,Position)&lt;/span&gt;" style="rounded=1;whiteSpace=wrap;html=1;" vertex="1" parent="1">
          <mxGeometry x="710" y="522.5" width="230" height="40" as="geometry" />
        </mxCell>
      </root>
    </mxGraphModel>
  </diagram>
</mxfile>
